<svg xmlns="http://www.w3.org/2000/svg" xml:space="preserve" fill-rule="evenodd" stroke-linejoin="round" stroke-miterlimit="2" clip-rule="evenodd" viewBox="0 0 135 101"><path fill="#ff0000" fill-opacity=".05" d="M0 13.876V7.24c.421.008.84.126 1.163.364l4.323 3.178c.657.482 1.124.217 1.04-.6L5.96 4.846c-.087-.816.453-1.742 1.203-2.075L12.069.628c.752-.33 1.345-.6 1.326-.607-.02-.014.632-.021 1.45-.021h10.204c.818 0 1.522.02 1.57.039.047.024 0 .08-.101.119-.091.035-.182.081-.193.084l-1.483.644-1.464.645c-.016.006-7.369 3.223-10.477 4.58-.751.326-1.293 1.257-1.205 2.067l1.059 10.017.183 1.748.183 1.753.081.738c.042.407-.155.565-.44.354a20.154 20.154 0 0 1-.519-.385l-1.236-.907-1.239-.912-8.622-6.345c-.317-.236-.73-.352-1.146-.363ZM0 37.9v-7.67l.013-.012 1.186-.947 8.043-6.433c.161.178.325.336.491.511.033.012.067.018.09.034l.62.467 2.473 1.815.622.456c.338.248.097.876-.542 1.387l-7.046 5.63-1.187.955-1.19.952-2.374 1.9-1.186.945L0 37.9Zm0 32.638v-7.68l.013.01 1.186.957 2.374 1.904 1.19.942 1.187.948 7.046 5.646c.639.51.88 1.124.542 1.377l-.622.452s-3.341 2.761-3.462 3.001l-8.255-6.6-1.186-.947-.013-.01Zm0 22.986v-6.635c.413-.01.824-.125 1.14-.356l8.621-6.356L11 79.273l1.235-.915.519-.377c.285-.212.483-.058.44.35-.046.41-.08.736-.08.736l-.184 1.755-.182 1.751-1.059 10.011c-.088.817.453 1.741 1.205 2.07a6476.192 6476.192 0 0 0 10.476 4.583l1.483.642 1.486.658.18.07c.098.045.147.203.1.225.035.013.018.045-.035.083H13.171c.199-.095.32-.156.31-.159a.53.53 0 0 1-.093-.005c.02-.007-.575-.28-1.326-.609l-4.907-2.145c-.75-.333-1.29-1.254-1.202-2.077l.565-5.338c.083-.812-.383-1.078-1.04-.591l-4.323 3.174c-.32.234-.736.35-1.155.359ZM109.397 0h10.21c.82 0 2.092.273 2.84.607l4.811 2.137c.75.336 1.278 1.262 1.189 2.077l-.597 5.32c-.09.817.373 1.087 1.034.606l4.334-3.15c.348-.255.808-.374 1.263-.36v6.633c-.46-.018-.927.101-1.28.357l-8.61 6.267-1.247.9-1.242.915-.544.389c-.297.217-.505.055-.46-.362l.088-.764.194-1.742.195-1.748 1.115-9.959c.088-.814-.44-1.748-1.19-2.079-3.096-1.38-10.41-4.632-10.427-4.642 0 0-1.464-.645-1.485-.653 0 0-1.462-.655-1.484-.662l-.094-.041c-.053-.025.567-.046 1.387-.046ZM82.61 0h9.983l-.199.16-.045.027.045.04 1.187.948.683.543c.16.093.322.195.476.319l2.124 1.696c.642.512 1.158 1.598 1.158 2.417v29.216c0 .033-.145-.053-.324-.207-.18-.144-.33-.268-.33-.268l-.101-.086a1.11 1.11 0 0 1-.311-.17c-.58-.472-1.049-.843-1.049-.843l-2.68-2.147c-.536-.431-.981-.91-1.116-1.191-.015-.018-.026-.035-.026-.042V30.4a.247.247 0 0 1-.018-.08v-.408l.017-20.844c.001-.823-.516-1.902-1.155-2.41l-2.101-1.682-1.186-.945-.045-.039-1.142.915-.769.619c-.108.13-.235.26-.39.38l-10.964 8.769c-.637.507-1.422.717-1.753.455-.324-.26-.591-.48-.591-.48l-2.377-1.898-.592-.474a.394.394 0 0 1-.14-.325c-.044-.307.219-.769.701-1.15l12.125-9.695 1.141-.922L82.61 0ZM41.802 0h9.978l-.198.16-.041.027.04.04 1.19.948.68.543a3.5 3.5 0 0 1 .478.319l12.119 9.696 1.19.945 1.186.957 2.373 1.903 1.19.943 1.187.948 7.047 5.646c.639.51.88 1.124.542 1.377l-.622.452s-3.342 2.761-3.462 3.001l-8.255-6.6-1.186-.947-1.191-.955-2.374-1.903-1.19-.942-1.187-.951L48.02 4.977l-1.192-.945-.04-.039-1.146.915-.768.619c-.106.13-.239.256-.388.38l-.942.753c-.55.444-1.01 1.295-1.13 2.051-.012.103-.02.198-.02.29l.157 21.15.003.192c0 .069-.26.342-.647.684a7.08 7.08 0 0 1-.71.656l-1.919 1.535-1.673 1.34c-.117.09-.232.152-.34.198-.48.38-.838.633-.838.598.002-.045.006-.517.01-1.057.008-.537.012-.971.012-.971V6.15c0-.819.516-1.905 1.156-2.417l3.285-2.624 1.147-.922L41.802 0Zm.15 100.915-1.06-.852-3.286-2.613c-.64-.512-1.156-1.591-1.156-2.422V67.863l-.012-.98c-.004-.533-.01-1.006-.01-1.052 0-.043.52.329 1.157.84l3.814 3.056c.641.512 1.157 1.012 1.156 1.118-.003.094-.003.182-.003.182l-.157 21.152c-.006.81.509 1.896 1.15 2.407l2.098 1.686 1.186.952 1.192.95 2.373 1.889 1.062.852H41.95Zm40.813 0-1.06-.852-12.125-9.685c-.637-.515-.89-1.142-.56-1.401l.59-.485 2.378-1.895.591-.476c.331-.262 1.116-.07 1.753.446l12.123 9.705 1.187.952 1.186.95 2.378 1.889 1.062.852h-9.503Zm25.36 0a6.547 6.547 0 0 1-.115-.05v-.14c0-.003.005-.005.006-.007l-.002-.001.004-.002c.008-.014.027-.022.057-.025l.043-.021s1.462-.647 1.484-.654l1.485-.669 10.405-4.621c.75-.336 1.28-1.266 1.19-2.085l-1.115-9.955-.194-1.744-.196-1.748-.086-.76c-.045-.415.163-.589.458-.36.3.216.546.39.546.39l1.242.901 1.246.911 8.612 6.266c.353.256.824.374 1.286.355v6.632c-.457.016-.921-.104-1.27-.358l-4.335-3.147c-.66-.48-1.124-.214-1.034.596l.597 5.324c.09.818-.44 1.749-1.188 2.081l-4.81 2.135c-.463.21-1.647.476-2.679.65.29.01.622.047.963.106h-12.6Zm26.356-30.352-.018-.015-1.191-.954-2.375-1.904-1.187-.942-1.189-.951-13.276-10.63-1.191-.945-.04-.039-1.146.915-.769.619c-.105.13-.237.256-.388.38l-.94.753c-.551.444-1.011 1.296-1.131 2.051-.013.102-.02.198-.02.29l.157 21.15.003.193c0 .067-.26.34-.646.683a7.147 7.147 0 0 1-.71.656l-1.92 1.535-1.673 1.34c-.117.09-.232.152-.34.198-.481.381-.839.633-.839.598.002-.045.007-.517.011-1.057l.012-.972V56.34c0-.819.516-1.905 1.156-2.417l3.285-2.624 1.147-.92-1.147-.91-3.285-2.626c-.64-.512-1.156-1.591-1.156-2.415V17.256l-.012-.974c-.004-.54-.01-1.013-.01-1.056 0-.041.357.211.837.593.109.042.224.103.341.204l1.673 1.332 1.92 1.53c.271.225.513.452.71.67.386.33.646.606.646.683-.003.102-.003.178-.003.178l-.158 21.164c0 .088.008.189.02.28.121.751.58 1.618 1.131 2.053l.941.753c.15.127.283.253.388.389l.769.61 1.145.922.04-.039 1.192-.949 13.276-10.624 1.189-.95 1.187-.952 2.375-1.908 1.19-.947.019-.014v7.671l-.018.015-1.19.957-12.12 9.695a2.73 2.73 0 0 1-.477.308l-.68.547-1.19.952-.04.03.04.038 1.19.948.68.544c.16.092.326.194.477.318l12.12 9.696 1.19.946.018.014v7.68ZM30.041 15.77l.103-.085s.652-.546.652-.525v29.267c0 .824-.515 1.903-1.157 2.415l-2.124 1.699a2.856 2.856 0 0 1-.475.308l-.684.547-1.186.952-.046.03.046.038 1.186.948.684.544c.16.092.32.194.475.318l2.124 1.696c.642.512 1.157 1.598 1.157 2.417v29.215c0 .034-.144-.052-.324-.207-.179-.143-.328-.267-.328-.267l-.103-.086a1.092 1.092 0 0 1-.31-.17c-.58-.471-1.049-.843-1.049-.843l-2.68-2.147c-.536-.431-.982-.91-1.116-1.191-.016-.018-.025-.035-.025-.043v-.01a.242.242 0 0 1-.018-.081v-.407l.017-20.844c0-.823-.518-1.902-1.156-2.41l-2.1-1.682-1.187-.945-.044-.039-1.142.915-.77.619c-.108.13-.235.26-.39.38L7.107 64.866c-.636.509-1.422.719-1.752.456-.325-.26-.592-.48-.592-.48l-2.377-1.897-.593-.475a.397.397 0 0 1-.14-.326c-.042-.306.22-.768.703-1.15L14.48 51.3l1.141-.92-1.14-.91-12.125-9.697c-.483-.393-.745-.845-.702-1.156 0-.124.04-.243.14-.313.327-.265.592-.475.592-.475l2.377-1.91.592-.473c.33-.264 1.116-.06 1.752.451l10.964 8.77c.155.127.282.253.392.389l.768.61 1.142.922.044-.039 1.186-.949 2.101-1.686c.638-.512 1.157-1.587 1.156-2.407l-.017-20.852v-.398c0-.021.008-.053.018-.085v-.01c0-.01.01-.029.027-.042.135-.273.578-.757 1.115-1.191l2.68-2.142 1.047-.84a1.15 1.15 0 0 1 .311-.175Zm.014-14.727c.411-.183.741.245.741.95v10.459c0 .444-.515 1.222-1.157 1.734L16.9 24.38c-.637.512-1.198.534-1.25.049l-.096-.869-.366-3.506s-.238-1.514-.3-1.736l8.816-7.053c.578-.461 1.054-1.387 1.14-2.158l-.001-.434c.002-2.015.004-5.354.018-5.36 0 0 1.464-.643 1.486-.649 0 0 2.947-1.289 2.967-1.292 0 0 .373-.173.74-.327Zm-.416 85.534c.642.51 1.157 1.286 1.157 1.738v9.31h-.003a126.049 126.049 0 0 1-.013 2.418s-1.466-.645-1.486-.655c0 0-2.947-1.29-2.969-1.296 0 0-.37-.16-.741-.324-.134-.056-.602-.37-.723-.381v-1.084a3.574 3.574 0 0 1-.018-.34c0-1.144.002-2.726.007-3.875v-.33c-.056-.8-.549-1.774-1.146-2.255l-8.93-7.148.01-.02c.102-.208.77-5.124.77-5.124l.096-.876c.052-.486.613-.464 1.25.047L29.64 86.578Zm79.97-77.724c0 .816.52 1.9 1.161 2.41l8.496 6.801c-.047.179-.023.856-.036.988-.057.48-.1.87-.1.87l-.39 3.489-.098.876c-.04.34-.344.425-.749.256l-.004.02-.062-.045a3.1 3.1 0 0 1-.443-.287l-12.553-10.045c-.64-.512-1.156-1.29-1.156-1.734v-2.089s0-.053-.004-.105a57.036 57.036 0 0 1-.019-1.587c.002-2.697.007-8.125.023-8.118 0 0 1.46.644 1.481.655a1545.065 1545.065 0 0 0 3.712 1.657c.176.07.653.569.741.578v5.41Zm22.505 19.492c.485.385.746.833.702 1.15a.395.395 0 0 1-.136.321l-.594.477-2.376 1.895-.596.477c-.326.259-1.107.06-1.75-.455l-6.034-4.83c-.64-.51-.878-1.12-.539-1.373.345-.248.624-.452.624-.452l2.489-1.807.62-.456c.154-.116.725-.305.75-.423l6.84 5.476Zm-13.472 48.14.098.86s.669 4.986.776 5.161l-8.746 6.997c-.642.512-1.16 1.587-1.16 2.407v5.747c-.054-.004-1.489.58-1.506.587 0 0-2.948 1.312-2.968 1.325 0 0-.369.162-.74.319-.41.188-.744-.328-.744-1.149.002-1.805.004-4.843.01-6.651.003-.812.013-1.81.013-2.228v-1.545c0-.452.516-1.229 1.156-1.738l12.553-10.042c.638-.51 1.204-.535 1.258-.05Zm13.444-6.011.594.477a.39.39 0 0 1 .136.325c.044.308-.217.765-.702 1.146l-6.486 5.186c-.051-.039-.898.008-1.104-.136l-.62-.449-2.49-1.811-.623-.453c-.339-.248-.1-.872.539-1.387l6.034-4.822c.643-.507 1.424-.714 1.75-.453.33.257.596.482.596.482l2.376 1.895Zm-38.853-.772 4.135-3.409s.654-.544.654-.53v29.264c0 .83-.516 1.91-1.158 2.422l-2.124 1.695c-.642.515-1.426.723-1.752.45-.327-.257-.594-.475-.594-.475l-2.375-1.896-.597-.476c-.328-.264-.074-.886.568-1.4l.94-.762c.638-.51 1.155-1.597 1.155-2.407V70.768c0-.067.514-.537 1.148-1.065ZM50.942 67.86c.639.515 1.113 1.312 1.063 1.794-.056.48-.1.877-.1.877l-.39 3.492-.098.866c-.055.485-.62.463-1.257-.046L37.606 64.794c-.64-.512-1.156-1.286-1.156-1.738v-.806s0-.372-.003-.746c-.004-.403-.02-1.401-.02-2.225.003-2.697.007-8.136.023-8.13a489.518 489.518 0 0 0 4.45 1.985s.373.167.743.328c.228.106.608.199.745.584l-.003 1.235v4.25c0 .82.329 1.746.73 2.067.406.32.732.582.732.582l7.095 5.68ZM64.89 79.02c.641.511.893 1.136.565 1.396-.328.266-.594.475-.594.475l-2.377 1.91-.594.476c-.327.254-1.108.06-1.752-.456l-6.033-4.828c-.639-.506-.878-1.125-.539-1.38.345-.246.624-.454.624-.454l2.49-1.807.62-.461c.346-.246 1.142-.029 1.782.482l5.808 4.647Zm15.25-2.747.623.458c.338.25.097.87-.542 1.384l-7.047 5.632-1.186.95-1.19.953-2.374 1.89-1.186.953-1.19.962-.047.034c-.026.012-.041.032-.031.044.009.005-.503.435-1.145.95l-10.863 8.686c-.641.513-1.32.856-1.522.789-.2-.079-.833-.616-1.432-1.177a36.021 36.021 0 0 0-1.805-1.563c-.642-.51-1.176-.898-1.166-.906a.017.017 0 0 0 0-.025c-.01-.007.5-.424 1.14-.938l12.119-9.7 1.188-.951 1.189-.951 2.375-1.899 1.19-.957 1.186-.95 6.849-5.474c.638-.517 1.435-.72 1.774-.471.343.252.62.451.62.451l2.474 1.826ZM97.28 51.64c.412-.177.742.345.742 1.168v10.248c0 .452-.516 1.226-1.158 1.738L84.125 74.987c-.637.51-1.198.535-1.25.052l-.096-.883-.366-3.506-.094-.87c-.05-.484.427-1.293 1.066-1.808l7.199-5.756.751-.6c.419-.329.75-.662.748-.735a76.136 76.136 0 0 1-.016-1.602c.002-2.01.005-5.361.018-5.368v-.032c.03.004.057.004.084.004.304-.137 1.385-.609 1.402-.617 0 0 2.948-1.287 2.967-1.299 0 0 .374-.158.741-.327ZM51.416 26.295c.054.48.099.86.099.86s.668 4.987.776 5.162l-8.747 6.997c-.641.512-1.16 1.587-1.16 2.407v5.747c-.054-.004-1.488.58-1.505.588 0 0-2.948 1.311-2.969 1.325l-.741.319c-.409.187-.742-.33-.742-1.15.002-1.804.003-4.842.01-6.65.002-.813.012-1.812.012-2.228v-1.546c0-.452.516-1.229 1.156-1.738L50.16 26.346c.638-.51 1.202-.535 1.257-.051Zm13.444-6.01.594.477a.39.39 0 0 1 .136.325c.044.308-.217.765-.701 1.146l-6.487 5.186c-.052-.039-.898.008-1.103-.137-.341-.245-.62-.448-.62-.448l-2.49-1.812-.624-.452c-.34-.248-.1-.872.539-1.387l6.033-4.822c.644-.507 1.425-.715 1.752-.454.329.258.594.483.594.483l2.377 1.895Zm32.003 16.103c.642.51 1.158 1.286 1.158 1.738v9.31h-.004a117.945 117.945 0 0 1-.013 2.418s-1.467-.645-1.486-.655c0 0-2.948-1.29-2.97-1.297 0 0-.368-.158-.74-.323-.133-.056-.602-.37-.724-.38v-1.085a3.579 3.579 0 0 1-.018-.338c0-1.146.002-2.727.008-3.876v-.33c-.056-.801-.548-1.775-1.146-2.256L82 32.166c.004-.011.007-.014.01-.02.102-.208.77-5.123.77-5.123l.096-.878c.052-.485.613-.463 1.25.048l12.74 10.195Zm-3.12 14.03c.099.044.146.203.099.224.047.018 0 .07-.1.123l-.193.084-1.484.644-1.463.64c-.016.006-7.369 3.225-10.477 4.578-.752.336-1.293 1.255-1.205 2.074l1.059 10.017.182 1.753.184 1.751.08.733c.043.405-.154.568-.44.35-.288-.21-.518-.375-.518-.375l-1.236-.91-1.24-.92-8.62-6.342c-.66-.485-1.733-.49-2.395-.006l-8.611 6.265-1.247.904-1.241.9-.545.4c-.297.216-.505.056-.46-.375.05-.41.088-.761.088-.761l.194-1.744.195-1.741 1.115-9.961c.09-.814-.44-1.744-1.19-2.08-3.096-1.369-10.411-4.624-10.428-4.63 0 0-1.462-.649-1.485-.663 0 0-1.558-.664-1.577-.674v-.14c0-.005.004-.005.005-.007v-.002s.002 0 .003-.002c.008-.014.028-.021.057-.025a.3.3 0 0 0 .043-.021s1.462-.647 1.485-.654l1.485-.668 10.404-4.622c.75-.336 1.28-1.266 1.19-2.085l-1.115-9.955-.194-1.744-.195-1.748-.087-.76c-.046-.415.163-.589.459-.361l.545.392 1.242.9 1.246.911 8.612 6.266c.662.48 1.734.476 2.394-.008l8.622-6.356 1.238-.904 1.236-.915.518-.377c.285-.212.484-.058.44.351l-.08.735-.183 1.755-.183 1.751-1.058 10.012c-.088.816.452 1.741 1.204 2.07 3.109 1.363 10.462 4.58 10.478 4.583 0 0 1.463.634 1.482.64 0 0 1.465.649 1.486.66l.18.07Zm-13.038.149a.51.51 0 0 1-.094-.006c.02-.007-.574-.28-1.325-.609l-4.907-2.144c-.75-.334-1.29-1.255-1.203-2.078l.566-5.338c.083-.812-.383-1.078-1.04-.591l-4.323 3.175c-.66.483-1.732.487-2.394.004l-4.335-3.147c-.66-.48-1.124-.213-1.034.596l.597 5.325c.09.817-.44 1.749-1.189 2.08l-4.81 2.134c-.463.211-1.647.477-2.678.65.819.028 1.98.28 2.686.593l4.81 2.14c.749.328 1.278 1.264 1.189 2.07l-.598 5.326c-.09.817.375 1.086 1.035.607l4.334-3.158c.662-.487 1.734-.479 2.394.008l4.323 3.178c.658.489 1.124.224 1.04-.593l-.566-5.347c-.087-.81.454-1.741 1.203-2.06l4.907-2.155c.752-.33 1.432-.654 1.412-.66Z"/></svg>